# xmcd
#
# Track frame offsets: 
#        150
#        28560
#        68806
#        109980
#        158785
#        195675
#        248242
#
# Disc length: 3992 seconds
#
# Revision: 1
# Processed by: cddbd v1.5.1PL0 Copyright (c) Steve Scherf et al.
# Submitted via: ExactAudioCopy v0.95b2
#
DISCID=5a0f9607
DTITLE=Popa Chubby - Electric Chubbyland
DYEAR=2004
DGENRE=Blues
TTITLE0=Foxy Lady
TTITLE1=The Wind Cries Mary
TTITLE2=Purple Haze
TTITLE3=Red House
TTITLE4=3rd Stone From The Sun
TTITLE5=Who Knows
TTITLE6=Little Wing
EXTD=
EXTT0=
EXTT1=
EXTT2=
EXTT3=
EXTT4=
EXTT5=
EXTT6=
PLAYORDER=
